# xmcd CD database file
#
# Track frame offsets:
#	182
#	17222
#	36995
#	62857
#	84380
#	102620
#	119400
#	139060
#	156020
#	173802
#	191052
#	221730
#	243125
#	260377
#
# Disc length: 3717 seconds
#
# Revision: 0
# Processed by: cddbd v1.5.2PL0 Copyright (c) Steve Scherf et al.
# Submitted via: CDex 1.70beta2
#
DISCID=c80e830e
DTITLE=Alain Bouchet Warren Vaché - Tribute to Buck Clayton
DYEAR=1993
DGENRE=Jazz
TTITLE0=01 Kandee
TTITLE1=02 Love in my Heart
TTITLE2=03 Tht'q my Home
TTITLE3=04 You're Lucky Guy
TTITLE4=05 Nacy's Fancy
TTITLE5=06 Bouchet Double
TTITLE6=07 Money First
TTITLE7=08 High on You
TTITLE8=09 I Want a Little Girl
TTITLE9=10 Buck Huckles
TTITLE10=11 Just a Groove
TTITLE11=12 They Can't Take That Away From Me
TTITLE12=13 Carry Me Back To Old Virginia
TTITLE13=14 Undecided
EXTD=YEAR: 1993
EXTT0=
EXTT1=
EXTT2=
EXTT3=
EXTT4=
EXTT5=
EXTT6=
EXTT7=
EXTT8=
EXTT9=
EXTT10=
EXTT11=
EXTT12=
EXTT13=
PLAYORDER=
